<svg xmlns="http://www.w3.org/2000/svg" xmlns:xlink="http://www.w3.org/1999/xlink" width="1080" zoomAndPan="magnify" viewBox="0 0 810 809.999993" height="1080" preserveAspectRatio="xMidYMid meet" version="1.0"><defs><clipPath id="81440e23a3"><path d="M 18 25 L 680 25 L 680 605 L 18 605 Z M 18 25 " clip-rule="nonzero"/></clipPath><clipPath id="9ab493f7a3"><path d="M 370.382812 37.6875 L 676.253906 567.222656 C 680.664062 574.859375 680.664062 584.265625 676.257812 591.902344 C 671.847656 599.539062 663.703125 604.242188 654.882812 604.242188 L 43.113281 604.242188 C 34.296875 604.242188 26.152344 599.539062 21.742188 591.902344 C 17.335938 584.265625 17.335938 574.859375 21.746094 567.222656 L 327.617188 37.6875 C 332.027344 30.046875 340.179688 25.34375 349 25.34375 C 357.820312 25.34375 365.96875 30.046875 370.382812 37.6875 Z M 370.382812 37.6875 " clip-rule="nonzero"/></clipPath><clipPath id="63653ca51a"><path d="M 0 0.199219 L 662 0.199219 L 662 579.320312 L 0 579.320312 Z M 0 0.199219 " clip-rule="nonzero"/></clipPath><clipPath id="ca2714c7e5"><path d="M 352.382812 12.6875 L 658.253906 542.222656 C 662.664062 549.859375 662.664062 559.265625 658.257812 566.902344 C 653.847656 574.539062 645.703125 579.242188 636.882812 579.242188 L 25.113281 579.242188 C 16.296875 579.242188 8.152344 574.539062 3.742188 566.902344 C -0.664062 559.265625 -0.664062 549.859375 3.746094 542.222656 L 309.617188 12.6875 C 314.027344 5.046875 322.179688 0.34375 331 0.34375 C 339.820312 0.34375 347.96875 5.046875 352.382812 12.6875 Z M 352.382812 12.6875 " clip-rule="nonzero"/></clipPath><clipPath id="47641cb68b"><rect x="0" width="662" y="0" height="580"/></clipPath><clipPath id="86805b726d"><path d="M 227.574219 272.234375 L 470.808594 272.234375 L 470.808594 508.996094 L 227.574219 508.996094 Z M 227.574219 272.234375 " clip-rule="nonzero"/></clipPath><clipPath id="86c01a37fa"><path d="M 348.988281 272.234375 L 446.5 319.28125 L 470.40625 424.382812 L 402.867188 508.996094 L 295.109375 508.996094 L 227.574219 424.382812 L 251.476562 319.28125 Z M 348.988281 272.234375 " clip-rule="nonzero"/></clipPath><clipPath id="ece2589dd6"><path d="M 0.574219 0.234375 L 243.558594 0.234375 L 243.558594 236.996094 L 0.574219 236.996094 Z M 0.574219 0.234375 " clip-rule="nonzero"/></clipPath><clipPath id="ce466c42e2"><path d="M 121.988281 0.234375 L 219.5 47.28125 L 243.40625 152.382812 L 175.867188 236.996094 L 68.109375 236.996094 L 0.574219 152.382812 L 24.476562 47.28125 Z M 121.988281 0.234375 " clip-rule="nonzero"/></clipPath><clipPath id="02a01022b4"><rect x="0" width="244" y="0" height="237"/></clipPath><clipPath id="81859c6c25"><rect x="0" width="700" y="0" height="606"/></clipPath></defs><g transform="matrix(1, 0, 0, 1, 56, 102)"><g clip-path="url(#81859c6c25)"><g clip-path="url(#81440e23a3)"><g clip-path="url(#9ab493f7a3)"><g transform="matrix(1, 0, 0, 1, 18, 25)"><g clip-path="url(#47641cb68b)"><g clip-path="url(#63653ca51a)"><g clip-path="url(#ca2714c7e5)"><rect x="-368.84" width="1399.68" fill="#8f00ff" y="-421.839997" height="1399.679988" fill-opacity="1"/></g></g></g></g></g></g><g clip-path="url(#86805b726d)"><g clip-path="url(#86c01a37fa)"><g transform="matrix(1, 0, 0, 1, 227, 272)"><g clip-path="url(#02a01022b4)"><g clip-path="url(#ece2589dd6)"><g clip-path="url(#ce466c42e2)"><path fill="#ffffff" d="M 0.574219 0.234375 L 243.808594 0.234375 L 243.808594 236.992188 L 0.574219 236.992188 Z M 0.574219 0.234375 " fill-opacity="1" fill-rule="nonzero"/></g></g></g></g></g></g></g></g></svg>