<svg xmlns="http://www.w3.org/2000/svg" xmlns:xlink="http://www.w3.org/1999/xlink" width="1080" zoomAndPan="magnify" viewBox="0 0 810 809.999993" height="1080" preserveAspectRatio="xMidYMid meet" version="1.0"><defs><clipPath id="27cb39f877"><path d="M 74 127 L 736 127 L 736 707 L 74 707 Z M 74 127 " clip-rule="nonzero"/></clipPath><clipPath id="aa6d369642"><path d="M 426.382812 139.6875 L 732.253906 669.222656 C 736.664062 676.859375 736.664062 686.265625 732.257812 693.902344 C 727.847656 701.539062 719.703125 706.242188 710.882812 706.242188 L 99.113281 706.242188 C 90.296875 706.242188 82.152344 701.539062 77.742188 693.902344 C 73.335938 686.265625 73.335938 676.859375 77.746094 669.222656 L 383.617188 139.6875 C 388.027344 132.046875 396.179688 127.34375 405 127.34375 C 413.820312 127.34375 421.96875 132.046875 426.382812 139.6875 Z M 426.382812 139.6875 " clip-rule="nonzero"/></clipPath><clipPath id="fb53993933"><path d="M 0 0.199219 L 662 0.199219 L 662 579.320312 L 0 579.320312 Z M 0 0.199219 " clip-rule="nonzero"/></clipPath><clipPath id="2476d3420a"><path d="M 352.382812 12.6875 L 658.253906 542.222656 C 662.664062 549.859375 662.664062 559.265625 658.257812 566.902344 C 653.847656 574.539062 645.703125 579.242188 636.882812 579.242188 L 25.113281 579.242188 C 16.296875 579.242188 8.152344 574.539062 3.742188 566.902344 C -0.664062 559.265625 -0.664062 549.859375 3.746094 542.222656 L 309.617188 12.6875 C 314.027344 5.046875 322.179688 0.34375 331 0.34375 C 339.820312 0.34375 347.96875 5.046875 352.382812 12.6875 Z M 352.382812 12.6875 " clip-rule="nonzero"/></clipPath><clipPath id="6f80d704a1"><rect x="0" width="662" y="0" height="580"/></clipPath><clipPath id="3aecfe54c4"><path d="M 283.574219 374.234375 L 526.808594 374.234375 L 526.808594 610.996094 L 283.574219 610.996094 Z M 283.574219 374.234375 " clip-rule="nonzero"/></clipPath><clipPath id="1b7286f842"><path d="M 404.988281 374.234375 L 502.5 421.28125 L 526.40625 526.382812 L 458.867188 610.996094 L 351.109375 610.996094 L 283.574219 526.382812 L 307.476562 421.28125 Z M 404.988281 374.234375 " clip-rule="nonzero"/></clipPath><clipPath id="749276acb0"><path d="M 0.574219 0.234375 L 243.558594 0.234375 L 243.558594 236.996094 L 0.574219 236.996094 Z M 0.574219 0.234375 " clip-rule="nonzero"/></clipPath><clipPath id="54cd729e37"><path d="M 121.988281 0.234375 L 219.5 47.28125 L 243.40625 152.382812 L 175.867188 236.996094 L 68.109375 236.996094 L 0.574219 152.382812 L 24.476562 47.28125 Z M 121.988281 0.234375 " clip-rule="nonzero"/></clipPath><clipPath id="9dd08cf0fb"><rect x="0" width="244" y="0" height="237"/></clipPath></defs><rect x="-81" width="972" fill="#ffffff" y="-80.999999" height="971.999992" fill-opacity="1"/><rect x="-81" width="972" fill="#ffffff" y="-80.999999" height="971.999992" fill-opacity="1"/><g clip-path="url(#27cb39f877)"><g clip-path="url(#aa6d369642)"><g transform="matrix(1, 0, 0, 1, 74, 127)"><g clip-path="url(#6f80d704a1)"><g clip-path="url(#fb53993933)"><g clip-path="url(#2476d3420a)"><rect x="-252.2" width="1166.4" fill="#390066" height="1166.39999" y="-305.199998" fill-opacity="1"/></g></g></g></g></g></g><g clip-path="url(#3aecfe54c4)"><g clip-path="url(#1b7286f842)"><g transform="matrix(1, 0, 0, 1, 283, 374)"><g clip-path="url(#9dd08cf0fb)"><g clip-path="url(#749276acb0)"><g clip-path="url(#54cd729e37)"><path fill="#ffffff" d="M 0.574219 0.234375 L 243.808594 0.234375 L 243.808594 236.996094 L 0.574219 236.996094 Z M 0.574219 0.234375 " fill-opacity="1" fill-rule="nonzero"/></g></g></g></g></g></g></svg>