<svg xmlns="http://www.w3.org/2000/svg" xmlns:xlink="http://www.w3.org/1999/xlink" width="500" zoomAndPan="magnify" viewBox="0 0 375 374.999991" height="500" preserveAspectRatio="xMidYMid meet" version="1.0"><defs><clipPath id="067883ec09"><path d="M 0.203125 0.203125 L 214.796875 0.203125 L 214.796875 214.796875 L 0.203125 214.796875 Z M 0.203125 0.203125 " clip-rule="nonzero"/></clipPath><clipPath id="d09ef9a1be"><path d="M 107.5 0.203125 L 214.796875 82.171875 L 173.8125 214.796875 L 41.1875 214.796875 L 0.203125 82.171875 Z M 107.5 0.203125 " clip-rule="nonzero"/></clipPath><clipPath id="1d73f05d58"><path d="M 0.203125 0.203125 L 214.796875 0.203125 L 214.796875 214.796875 L 0.203125 214.796875 Z M 0.203125 0.203125 " clip-rule="nonzero"/></clipPath><clipPath id="6c020ecda8"><path d="M 107.5 0.203125 L 214.796875 82.171875 L 173.8125 214.796875 L 41.1875 214.796875 L 0.203125 82.171875 Z M 107.5 0.203125 " clip-rule="nonzero"/></clipPath><clipPath id="08f9fc0d94"><rect x="0" width="215" y="0" height="215"/></clipPath><clipPath id="2f60485329"><path d="M 45.5 79.933594 L 169.316406 79.933594 L 169.316406 188.113281 L 45.5 188.113281 Z M 45.5 79.933594 " clip-rule="nonzero"/></clipPath><clipPath id="dd03817e97"><path d="M 107.5 188.113281 L 45.679688 79.933594 L 169.316406 79.933594 Z M 107.5 188.113281 " clip-rule="nonzero"/></clipPath><clipPath id="0165331491"><path d="M 0.519531 0.933594 L 124.316406 0.933594 L 124.316406 109.113281 L 0.519531 109.113281 Z M 0.519531 0.933594 " clip-rule="nonzero"/></clipPath><clipPath id="1e5781de56"><path d="M 62.5 109.113281 L 0.679688 0.933594 L 124.316406 0.933594 Z M 62.5 109.113281 " clip-rule="nonzero"/></clipPath><clipPath id="f0fc5ff419"><rect x="0" width="125" y="0" height="110"/></clipPath><clipPath id="918e02a99b"><rect x="0" width="215" y="0" height="215"/></clipPath></defs><g transform="matrix(1, 0, 0, 1, 80, 80)"><g clip-path="url(#918e02a99b)"><g clip-path="url(#067883ec09)"><g clip-path="url(#d09ef9a1be)"><g><g clip-path="url(#08f9fc0d94)"><g clip-path="url(#1d73f05d58)"><g clip-path="url(#6c020ecda8)"><path fill="#770279" d="M 0.203125 0.203125 L 214.796875 0.203125 L 214.796875 214.796875 L 0.203125 214.796875 Z M 0.203125 0.203125 " fill-opacity="1" fill-rule="nonzero"/></g></g></g></g></g></g><g clip-path="url(#2f60485329)"><g clip-path="url(#dd03817e97)"><g transform="matrix(1, 0, 0, 1, 45, 79)"><g clip-path="url(#f0fc5ff419)"><g clip-path="url(#0165331491)"><g clip-path="url(#1e5781de56)"><path fill="#1a1e23" d="M 124.316406 109.113281 L 0.5 109.113281 L 0.5 0.933594 L 124.316406 0.933594 Z M 124.316406 109.113281 " fill-opacity="1" fill-rule="nonzero"/></g></g></g></g></g></g></g></g></svg>