<svg xmlns="http://www.w3.org/2000/svg" xmlns:xlink="http://www.w3.org/1999/xlink" width="2000" zoomAndPan="magnify" viewBox="0 0 1500 1499.999933" height="2000" preserveAspectRatio="xMidYMid meet" version="1.0"><defs><clipPath id="4e9d9b62f0"><path d="M 0.417969 0.417969 L 375.582031 0.417969 L 375.582031 375.582031 L 0.417969 375.582031 Z M 0.417969 0.417969 " clip-rule="nonzero"/></clipPath><clipPath id="f6def6bfbc"><path d="M 188 0.417969 L 375.582031 143.71875 L 303.929688 375.582031 L 72.070312 375.582031 L 0.417969 143.71875 Z M 188 0.417969 " clip-rule="nonzero"/></clipPath><clipPath id="031b551663"><path d="M 0.417969 0.417969 L 375.582031 0.417969 L 375.582031 375.582031 L 0.417969 375.582031 Z M 0.417969 0.417969 " clip-rule="nonzero"/></clipPath><clipPath id="50f8d0b85b"><path d="M 188 0.417969 L 375.582031 143.71875 L 303.929688 375.582031 L 72.070312 375.582031 L 0.417969 143.71875 Z M 188 0.417969 " clip-rule="nonzero"/></clipPath><clipPath id="1dbd621c38"><rect x="0" width="376" y="0" height="376"/></clipPath><clipPath id="d6cc27c045"><path d="M 79.609375 139.808594 L 296.070312 139.808594 L 296.070312 328.933594 L 79.609375 328.933594 Z M 79.609375 139.808594 " clip-rule="nonzero"/></clipPath><clipPath id="e950ecbe6e"><path d="M 187.996094 328.933594 L 79.925781 139.808594 L 296.070312 139.808594 Z M 187.996094 328.933594 " clip-rule="nonzero"/></clipPath><clipPath id="011adacfe1"><path d="M 0.761719 0.808594 L 217.070312 0.808594 L 217.070312 189.933594 L 0.761719 189.933594 Z M 0.761719 0.808594 " clip-rule="nonzero"/></clipPath><clipPath id="e6a1762f0e"><path d="M 108.996094 189.933594 L 0.925781 0.808594 L 217.070312 0.808594 Z M 108.996094 189.933594 " clip-rule="nonzero"/></clipPath><clipPath id="e1fadcd0b8"><rect x="0" width="218" y="0" height="190"/></clipPath><clipPath id="f59a283f69"><rect x="0" width="376" y="0" height="376"/></clipPath></defs><g transform="matrix(1, 0, 0, 1, 562, 562)"><g clip-path="url(#f59a283f69)"><g clip-path="url(#4e9d9b62f0)"><g clip-path="url(#f6def6bfbc)"><g transform="matrix(1, 0, 0, 1, 0, 0.000000000000113687)"><g clip-path="url(#1dbd621c38)"><g clip-path="url(#031b551663)"><g clip-path="url(#50f8d0b85b)"><path fill="#770279" d="M 0.417969 0.417969 L 375.582031 0.417969 L 375.582031 375.582031 L 0.417969 375.582031 Z M 0.417969 0.417969 " fill-opacity="1" fill-rule="nonzero"/></g></g></g></g></g></g><g clip-path="url(#d6cc27c045)"><g clip-path="url(#e950ecbe6e)"><g transform="matrix(1, 0, 0, 1, 79, 139)"><g clip-path="url(#e1fadcd0b8)"><g clip-path="url(#011adacfe1)"><g clip-path="url(#e6a1762f0e)"><path fill="#1a1e23" d="M 217.070312 189.933594 L 0.609375 189.933594 L 0.609375 0.808594 L 217.070312 0.808594 Z M 217.070312 189.933594 " fill-opacity="1" fill-rule="nonzero"/></g></g></g></g></g></g></g></g></svg>